# xmcd CD database file
#
# Track frame offsets:
#	150
#	23275
#	40129
#	58609
#	84761
#	104446
#	119342
#	141246
#	156769
#	169457
#	188701
#
# Disc length: 2826 seconds
#
# Revision: 0
# Processed by: cddbd v1.5.2PL0 Copyright (c) Steve Scherf et al.
# Submitted via: CDex 1.70beta2
#
DISCID=860b080b
DTITLE=Andismanta Kjary - Dance Hits For You
DYEAR=1995
DGENRE=New Age
TTITLE0=GIve Me Give Me
TTITLE1=Cumbia Andina
TTITLE2=Chwshawkw
TTITLE3=Matsuri
TTITLE4=Guantanamera
TTITLE5=Rosa Maria
TTITLE6=Arcoiris
TTITLE7=Lady Lady
TTITLE8=A Mi Lindo Ecuador
TTITLE9=Oye Como Va
TTITLE10=Colegiala Lambada
EXTD=YEAR: 1995
EXTT0=
EXTT1=
EXTT2=
EXTT3=
EXTT4=
EXTT5=
EXTT6=
EXTT7=
EXTT8=
EXTT9=
EXTT10=
PLAYORDER=
